<mxfile host="Electron" modified="2024-11-04T17:13:23.372Z" agent="Mozilla/5.0 (Windows NT 10.0; Win64; x64) AppleWebKit/537.36 (KHTML, like Gecko) draw.io/23.0.2 Chrome/120.0.6099.109 Electron/28.1.0 Safari/537.36" etag="sZGPPWChch6HbeTUcMEf" version="23.0.2" type="device" pages="2">
  <diagram name="Page-1" id="WlXQ0wQTGZZfjcRnXQKP">
    <mxGraphModel dx="1434" dy="836" grid="1" gridSize="10" guides="1" tooltips="1" connect="1" arrows="1" fold="1" page="1" pageScale="1" pageWidth="850" pageHeight="1100" math="0" shadow="0">
      <root>
        <mxCell id="0" />
        <mxCell id="1" parent="0" />
        <mxCell id="ig4OSkYLAl0YVuFVftQK-2" value="&lt;b&gt;&lt;br&gt;Sqlite&lt;/b&gt;" style="strokeWidth=2;html=1;shape=mxgraph.flowchart.database;whiteSpace=wrap;" vertex="1" parent="1">
          <mxGeometry x="425" y="520" width="60" height="60" as="geometry" />
        </mxCell>
        <mxCell id="ig4OSkYLAl0YVuFVftQK-3" value="Embeddings" style="text;html=1;align=center;verticalAlign=middle;resizable=0;points=[];autosize=1;strokeColor=none;fillColor=none;" vertex="1" parent="1">
          <mxGeometry x="410" y="580" width="90" height="30" as="geometry" />
        </mxCell>
        <mxCell id="ig4OSkYLAl0YVuFVftQK-5" value="" style="sketch=0;aspect=fixed;pointerEvents=1;shadow=0;dashed=0;html=1;strokeColor=none;labelPosition=center;verticalLabelPosition=bottom;verticalAlign=top;align=center;fillColor=#00188D;shape=mxgraph.mscae.enterprise.plug_and_play" vertex="1" parent="1">
          <mxGeometry x="535" y="525" width="40" height="50" as="geometry" />
        </mxCell>
        <mxCell id="ig4OSkYLAl0YVuFVftQK-6" value="Sqlite-Vec" style="text;html=1;align=center;verticalAlign=middle;resizable=0;points=[];autosize=1;strokeColor=none;fillColor=none;" vertex="1" parent="1">
          <mxGeometry x="510" y="580" width="80" height="30" as="geometry" />
        </mxCell>
        <mxCell id="ig4OSkYLAl0YVuFVftQK-8" value="&lt;b&gt;&lt;br&gt;Sqlite&lt;/b&gt;" style="strokeWidth=2;html=1;shape=mxgraph.flowchart.database;whiteSpace=wrap;" vertex="1" parent="1">
          <mxGeometry x="305" y="520" width="60" height="60" as="geometry" />
        </mxCell>
        <mxCell id="ig4OSkYLAl0YVuFVftQK-9" value="Sample Text + Metadata" style="text;html=1;align=center;verticalAlign=middle;resizable=0;points=[];autosize=1;strokeColor=none;fillColor=none;" vertex="1" parent="1">
          <mxGeometry x="260" y="580" width="150" height="30" as="geometry" />
        </mxCell>
        <mxCell id="ig4OSkYLAl0YVuFVftQK-10" value="Vector Database Wrapper" style="rounded=1;whiteSpace=wrap;html=1;fontStyle=1" vertex="1" parent="1">
          <mxGeometry x="280" y="400" width="300" height="60" as="geometry" />
        </mxCell>
        <mxCell id="ig4OSkYLAl0YVuFVftQK-11" value="" style="sketch=0;outlineConnect=0;fontColor=#232F3E;gradientColor=none;fillColor=#01A88D;strokeColor=none;dashed=0;verticalLabelPosition=bottom;verticalAlign=top;align=center;html=1;fontSize=12;fontStyle=0;aspect=fixed;pointerEvents=1;shape=mxgraph.aws4.sagemaker_model;" vertex="1" parent="1">
          <mxGeometry x="666" y="286" width="58" height="58" as="geometry" />
        </mxCell>
        <mxCell id="ig4OSkYLAl0YVuFVftQK-12" value="Gemini Flash 1.5B" style="text;html=1;align=center;verticalAlign=middle;resizable=0;points=[];autosize=1;strokeColor=none;fillColor=none;fontStyle=1" vertex="1" parent="1">
          <mxGeometry x="630" y="344" width="130" height="30" as="geometry" />
        </mxCell>
        <mxCell id="ig4OSkYLAl0YVuFVftQK-13" value="Server Application&lt;br&gt;(Flask)" style="rounded=1;whiteSpace=wrap;html=1;fontStyle=1" vertex="1" parent="1">
          <mxGeometry x="280" y="300" width="300" height="60" as="geometry" />
        </mxCell>
        <mxCell id="ig4OSkYLAl0YVuFVftQK-14" value="" style="sketch=0;outlineConnect=0;fontColor=#232F3E;gradientColor=none;fillColor=#7AA116;strokeColor=none;dashed=0;verticalLabelPosition=bottom;verticalAlign=top;align=center;html=1;fontSize=12;fontStyle=0;aspect=fixed;pointerEvents=1;shape=mxgraph.aws4.iot_sitewise_asset_model;" vertex="1" parent="1">
          <mxGeometry x="145" y="286" width="64.5" height="64.5" as="geometry" />
        </mxCell>
        <mxCell id="ig4OSkYLAl0YVuFVftQK-15" value="Text-to-Embedding&lt;br&gt;Model&lt;br&gt;(Wiki-Words)" style="text;html=1;align=center;verticalAlign=middle;resizable=0;points=[];autosize=1;strokeColor=none;fillColor=none;fontStyle=1" vertex="1" parent="1">
          <mxGeometry x="110" y="350.5" width="130" height="60" as="geometry" />
        </mxCell>
        <mxCell id="ig4OSkYLAl0YVuFVftQK-16" value="Front-end Interface&lt;br&gt;(React)" style="rounded=1;whiteSpace=wrap;html=1;fontStyle=1" vertex="1" parent="1">
          <mxGeometry x="280" y="160" width="300" height="60" as="geometry" />
        </mxCell>
        <mxCell id="ig4OSkYLAl0YVuFVftQK-17" value="" style="endArrow=none;dashed=1;html=1;dashPattern=1 3;strokeWidth=2;rounded=0;strokeColor=#666666;" edge="1" parent="1">
          <mxGeometry width="50" height="50" relative="1" as="geometry">
            <mxPoint x="170" y="260" as="sourcePoint" />
            <mxPoint x="700" y="260" as="targetPoint" />
          </mxGeometry>
        </mxCell>
        <mxCell id="ig4OSkYLAl0YVuFVftQK-18" value="" style="shape=flexArrow;endArrow=classic;startArrow=classic;html=1;rounded=0;exitX=0.5;exitY=0;exitDx=0;exitDy=0;width=25.6;endSize=6.9319999999999995;" edge="1" parent="1" source="ig4OSkYLAl0YVuFVftQK-13">
          <mxGeometry width="100" height="100" relative="1" as="geometry">
            <mxPoint x="330" y="320" as="sourcePoint" />
            <mxPoint x="430" y="220" as="targetPoint" />
          </mxGeometry>
        </mxCell>
        <mxCell id="ig4OSkYLAl0YVuFVftQK-21" value="&lt;font style=&quot;font-size: 6px;&quot;&gt;RESTCommunication&lt;/font&gt;" style="edgeLabel;html=1;align=center;verticalAlign=middle;resizable=0;points=[];rotation=-90;fontStyle=1" vertex="1" connectable="0" parent="ig4OSkYLAl0YVuFVftQK-18">
          <mxGeometry x="0.25" y="1" relative="1" as="geometry">
            <mxPoint x="1" y="10" as="offset" />
          </mxGeometry>
        </mxCell>
        <mxCell id="ig4OSkYLAl0YVuFVftQK-24" value="Client Facing" style="text;html=1;align=center;verticalAlign=middle;resizable=0;points=[];autosize=1;strokeColor=#b85450;fillColor=#f8cecc;fontStyle=0" vertex="1" parent="1">
          <mxGeometry x="605" y="175" width="90" height="30" as="geometry" />
        </mxCell>
        <mxCell id="ig4OSkYLAl0YVuFVftQK-25" value="Database Layer" style="rounded=1;whiteSpace=wrap;html=1;fillColor=none;verticalAlign=bottom;fontStyle=1" vertex="1" parent="1">
          <mxGeometry x="242.5" y="500" width="375" height="130" as="geometry" />
        </mxCell>
        <mxCell id="ig4OSkYLAl0YVuFVftQK-26" value="" style="endArrow=classic;html=1;rounded=0;exitX=0.25;exitY=1;exitDx=0;exitDy=0;entryX=0.25;entryY=0;entryDx=0;entryDy=0;" edge="1" parent="1" source="ig4OSkYLAl0YVuFVftQK-13" target="ig4OSkYLAl0YVuFVftQK-10">
          <mxGeometry width="50" height="50" relative="1" as="geometry">
            <mxPoint x="370" y="390" as="sourcePoint" />
            <mxPoint x="420" y="340" as="targetPoint" />
          </mxGeometry>
        </mxCell>
        <mxCell id="ig4OSkYLAl0YVuFVftQK-27" value="Save/Persist" style="edgeLabel;html=1;align=center;verticalAlign=middle;resizable=0;points=[];" vertex="1" connectable="0" parent="ig4OSkYLAl0YVuFVftQK-26">
          <mxGeometry x="-0.0429" relative="1" as="geometry">
            <mxPoint as="offset" />
          </mxGeometry>
        </mxCell>
        <mxCell id="ig4OSkYLAl0YVuFVftQK-28" value="" style="endArrow=classic;html=1;rounded=0;entryX=0.75;entryY=1;entryDx=0;entryDy=0;exitX=0.75;exitY=0;exitDx=0;exitDy=0;" edge="1" parent="1" source="ig4OSkYLAl0YVuFVftQK-10" target="ig4OSkYLAl0YVuFVftQK-13">
          <mxGeometry width="50" height="50" relative="1" as="geometry">
            <mxPoint x="370" y="390" as="sourcePoint" />
            <mxPoint x="420" y="340" as="targetPoint" />
          </mxGeometry>
        </mxCell>
        <mxCell id="ig4OSkYLAl0YVuFVftQK-29" value="Search" style="edgeLabel;html=1;align=center;verticalAlign=middle;resizable=0;points=[];" vertex="1" connectable="0" parent="ig4OSkYLAl0YVuFVftQK-28">
          <mxGeometry x="0.0905" relative="1" as="geometry">
            <mxPoint as="offset" />
          </mxGeometry>
        </mxCell>
        <mxCell id="ig4OSkYLAl0YVuFVftQK-33" value="" style="endArrow=none;html=1;rounded=0;exitX=0.5;exitY=0;exitDx=0;exitDy=0;entryX=0.5;entryY=1;entryDx=0;entryDy=0;" edge="1" parent="1" source="ig4OSkYLAl0YVuFVftQK-25" target="ig4OSkYLAl0YVuFVftQK-10">
          <mxGeometry width="50" height="50" relative="1" as="geometry">
            <mxPoint x="370" y="460" as="sourcePoint" />
            <mxPoint x="420" y="410" as="targetPoint" />
          </mxGeometry>
        </mxCell>
        <mxCell id="ig4OSkYLAl0YVuFVftQK-35" value="SQL Queries" style="edgeLabel;html=1;align=center;verticalAlign=middle;resizable=0;points=[];" vertex="1" connectable="0" parent="ig4OSkYLAl0YVuFVftQK-33">
          <mxGeometry x="0.019" relative="1" as="geometry">
            <mxPoint as="offset" />
          </mxGeometry>
        </mxCell>
        <mxCell id="ig4OSkYLAl0YVuFVftQK-36" value="" style="endArrow=classic;html=1;rounded=0;exitX=1;exitY=0.5;exitDx=0;exitDy=0;" edge="1" parent="1" source="ig4OSkYLAl0YVuFVftQK-13">
          <mxGeometry width="50" height="50" relative="1" as="geometry">
            <mxPoint x="420" y="430" as="sourcePoint" />
            <mxPoint x="660" y="330" as="targetPoint" />
          </mxGeometry>
        </mxCell>
        <mxCell id="ig4OSkYLAl0YVuFVftQK-37" value="Ask" style="edgeLabel;html=1;align=center;verticalAlign=middle;resizable=0;points=[];" vertex="1" connectable="0" parent="ig4OSkYLAl0YVuFVftQK-36">
          <mxGeometry x="-0.075" y="-1" relative="1" as="geometry">
            <mxPoint as="offset" />
          </mxGeometry>
        </mxCell>
        <mxCell id="ig4OSkYLAl0YVuFVftQK-38" value="" style="endArrow=classic;html=1;rounded=0;" edge="1" parent="1" source="ig4OSkYLAl0YVuFVftQK-13">
          <mxGeometry width="50" height="50" relative="1" as="geometry">
            <mxPoint x="420" y="430" as="sourcePoint" />
            <mxPoint x="210" y="330" as="targetPoint" />
          </mxGeometry>
        </mxCell>
        <mxCell id="ig4OSkYLAl0YVuFVftQK-39" value="Get&amp;nbsp;&lt;br style=&quot;font-size: 7px;&quot;&gt;Embeddings" style="edgeLabel;html=1;align=center;verticalAlign=middle;resizable=0;points=[];fontSize=7;" vertex="1" connectable="0" parent="ig4OSkYLAl0YVuFVftQK-38">
          <mxGeometry x="-0.0343" y="1" relative="1" as="geometry">
            <mxPoint x="4" y="-1" as="offset" />
          </mxGeometry>
        </mxCell>
        <mxCell id="ig4OSkYLAl0YVuFVftQK-41" value="" style="rounded=0;whiteSpace=wrap;html=1;fillColor=none;strokeWidth=3;" vertex="1" parent="1">
          <mxGeometry x="80" y="120" width="720" height="560" as="geometry" />
        </mxCell>
        <mxCell id="ig4OSkYLAl0YVuFVftQK-42" value="Application architecture" style="text;html=1;strokeColor=none;fillColor=none;align=left;verticalAlign=middle;whiteSpace=wrap;rounded=0;fontStyle=2" vertex="1" parent="1">
          <mxGeometry x="90" y="650" width="190" height="30" as="geometry" />
        </mxCell>
      </root>
    </mxGraphModel>
  </diagram>
  <diagram id="c9z1zT4eZGtygRwg-402" name="Page-2">
    <mxGraphModel dx="1195" dy="697" grid="1" gridSize="10" guides="1" tooltips="1" connect="1" arrows="1" fold="1" page="1" pageScale="1" pageWidth="850" pageHeight="1100" math="0" shadow="0">
      <root>
        <mxCell id="0" />
        <mxCell id="1" parent="0" />
        <mxCell id="Ly0RQTHxFmGOAUhsB7w_-1" value="" style="endArrow=open;html=1;rounded=0;endFill=0;strokeWidth=2;" edge="1" parent="1">
          <mxGeometry width="50" height="50" relative="1" as="geometry">
            <mxPoint x="320" y="480" as="sourcePoint" />
            <mxPoint x="320" y="200" as="targetPoint" />
          </mxGeometry>
        </mxCell>
        <mxCell id="Ly0RQTHxFmGOAUhsB7w_-2" value="" style="endArrow=open;html=1;rounded=0;endFill=0;strokeWidth=2;" edge="1" parent="1">
          <mxGeometry width="50" height="50" relative="1" as="geometry">
            <mxPoint x="280" y="440" as="sourcePoint" />
            <mxPoint x="570" y="440" as="targetPoint" />
          </mxGeometry>
        </mxCell>
        <mxCell id="Ly0RQTHxFmGOAUhsB7w_-4" value="" style="endArrow=open;html=1;rounded=0;endFill=0;strokeWidth=2;" edge="1" parent="1">
          <mxGeometry width="50" height="50" relative="1" as="geometry">
            <mxPoint x="290" y="470" as="sourcePoint" />
            <mxPoint x="500" y="260" as="targetPoint" />
          </mxGeometry>
        </mxCell>
        <mxCell id="Ly0RQTHxFmGOAUhsB7w_-5" value="(y) Curiosity" style="text;html=1;align=center;verticalAlign=middle;resizable=0;points=[];autosize=1;strokeColor=none;fillColor=none;rotation=-90;fontFamily=Times New Roman;fontStyle=3;fontSize=14;" vertex="1" parent="1">
          <mxGeometry x="250" y="310" width="100" height="30" as="geometry" />
        </mxCell>
        <mxCell id="Ly0RQTHxFmGOAUhsB7w_-6" value="(z) Knowledge" style="text;html=1;align=center;verticalAlign=middle;resizable=0;points=[];autosize=1;strokeColor=none;fillColor=none;rotation=-45;fontFamily=Times New Roman;fontStyle=3;fontSize=14;" vertex="1" parent="1">
          <mxGeometry x="350" y="320" width="110" height="30" as="geometry" />
        </mxCell>
        <mxCell id="Ly0RQTHxFmGOAUhsB7w_-7" value="(x) Action" style="text;html=1;align=center;verticalAlign=middle;resizable=0;points=[];autosize=1;strokeColor=none;fillColor=none;rotation=0;fontFamily=Times New Roman;fontStyle=3;fontSize=14;" vertex="1" parent="1">
          <mxGeometry x="385" y="440" width="80" height="30" as="geometry" />
        </mxCell>
        <mxCell id="Ly0RQTHxFmGOAUhsB7w_-8" value="Nosey&lt;br&gt;(नासूर)" style="text;html=1;strokeColor=none;fillColor=none;align=center;verticalAlign=middle;whiteSpace=wrap;rounded=0;fontColor=#FF3333;fontStyle=1" vertex="1" parent="1">
          <mxGeometry x="290" y="160" width="60" height="30" as="geometry" />
        </mxCell>
        <mxCell id="Ly0RQTHxFmGOAUhsB7w_-9" value="Book-Worm&lt;br&gt;(किताबी कीड़ा)" style="text;html=1;strokeColor=none;fillColor=none;align=center;verticalAlign=middle;whiteSpace=wrap;rounded=0;fontColor=#FF3333;fontStyle=1" vertex="1" parent="1">
          <mxGeometry x="470" y="220" width="110" height="30" as="geometry" />
        </mxCell>
        <mxCell id="Ly0RQTHxFmGOAUhsB7w_-10" value="Busy-Fool&lt;br&gt;(गधा मजदूर)" style="text;html=1;strokeColor=none;fillColor=none;align=center;verticalAlign=middle;whiteSpace=wrap;rounded=0;fontColor=#FF3333;fontStyle=1" vertex="1" parent="1">
          <mxGeometry x="520" y="400" width="70" height="30" as="geometry" />
        </mxCell>
        <mxCell id="Ly0RQTHxFmGOAUhsB7w_-11" value="" style="rounded=0;whiteSpace=wrap;html=1;fillColor=none;strokeWidth=2;" vertex="1" parent="1">
          <mxGeometry x="250" y="140" width="360" height="360" as="geometry" />
        </mxCell>
      </root>
    </mxGraphModel>
  </diagram>
</mxfile>
